<?xml version="1.0" encoding="UTF-8"?>
<svg id="Layer_1" data-name="Layer 1" xmlns="http://www.w3.org/2000/svg" width="1080" height="1080" viewBox="0 0 1080 1080">
  <path d="M539.8424,341.7479c-109.2326,0-198.0966,88.864-198.0966,198.0966s88.864,198.0966,198.0966,198.0966,198.091-88.8697,198.091-198.0966-88.8584-198.0966-198.091-198.0966Z" fill="#d4d4d4"/>
  <path d="M981.2275,228.871l-113.7577,113.7577c34.8169,57.6267,54.8893,125.1161,54.8893,197.2158s-20.0695,139.5856-54.8836,197.2102l113.8857,113.8857c62.0617-87.9298,98.6389-195.1312,98.6389-310.9404,0-115.8915-36.6299-223.164-98.7725-311.129Z" fill="#d4d4d4"/>
  <path d="M342.6203,212.2164c57.6281-34.8204,125.1204-54.8942,197.2221-54.8942s139.5919,20.0731,197.2179,54.8928l113.7028-113.7028C762.8671,36.5272,655.7311,0,540,0c-115.8134,0-223.0191,36.5799-310.9503,98.6459l113.5705,113.5705Z" fill="#d4d4d4"/>
  <path d="M737.0617,867.4754c-57.6267,34.819-125.1182,54.8914-197.2193,54.8914s-139.5947-20.0731-197.2228-54.8928l-113.7499,113.752c87.9649,62.1433,195.2375,98.7739,311.1304,98.7739,115.8106,0,223.0142-36.5785,310.9446-98.6417l-113.8829-113.8829Z" fill="#d4d4d4"/>
  <path d="M98.6438,229.0519C36.5792,316.983,0,424.188,0,540c0,115.7304,36.5265,222.865,98.5108,310.761l113.6986-113.7c-34.8176-57.626-54.8893-125.1161-54.8893-197.2165s20.0738-139.594,54.8942-197.2221l-113.5705-113.5705Z" fill="#d4d4d4"/>
</svg>